# xmcd CD database file
#
# Track frame offsets:
#	150
#	17137
#	36264
#	61383
#	91478
#	113467
#	127077
#	141768
#	165906
#	185820
#	203011
#	216168
#	232436
#	253715
#	277408
#	304501
#	327700
#
# Disc length: 4490 seconds
#
# Revision: 0
# Processed by: cddbd v1.5.2PL0 Copyright (c) Steve Scherf et al.
# Submitted via: CDex 1.51
#
DISCID=08118811
DTITLE=Frankhouse - Thought versus emotion
DYEAR=2009
DGENRE=Jazz
TTITLE0=Ambulatory
TTITLE1=By the Way
TTITLE2=Higher Ground
TTITLE3=Enough
TTITLE4=Folly
TTITLE5=Chasin' the Blues
TTITLE6=Eric's Enlightenment
TTITLE7=Three Days
TTITLE8=Don't
TTITLE9=Encantadora
TTITLE10=Karl's Karma
TTITLE11=Breckish
TTITLE12=Far From Romance
TTITLE13=All I Want
TTITLE14=Old Aged
TTITLE15=Purpleheart
TTITLE16=the end
EXTD=YEAR: 2009
EXTT0=
EXTT1=
EXTT2=
EXTT3=
EXTT4=
EXTT5=
EXTT6=
EXTT7=
EXTT8=
EXTT9=
EXTT10=
EXTT11=
EXTT12=
EXTT13=
EXTT14=
EXTT15=
EXTT16=
PLAYORDER=
